<svg xmlns="http://www.w3.org/2000/svg" viewBox="0 0 440.14 188.9"><defs><style>.cls-1,.cls-4,.cls-9{fill:#1d1d1b;}.cls-1,.cls-2,.cls-3,.cls-4,.cls-8{stroke:#1d1d1b;}.cls-1,.cls-2,.cls-3,.cls-8{stroke-miterlimit:10;}.cls-1,.cls-2{stroke-width:0.75px;}.cls-10,.cls-2{fill:#fff;}.cls-3,.cls-8{fill:none;}.cls-3,.cls-4{stroke-width:2px;}.cls-4{font-size:48.17px;font-family:CooperBlack, Cooper Black;}.cls-5{letter-spacing:-0.01em;}.cls-6{letter-spacing:-0.01em;}.cls-7{letter-spacing:0em;}.cls-8{stroke-width:0.25px;}</style></defs><g id="Calque_2" data-name="Calque 2"><g id="Logo1"><g id="Calque_3" data-name="Calque 3"><path class="cls-1" d="M226.18,87.26s-18.84-1.63-19.81,20.12c0,0,.66,17.5,18.25,18.42,0,0,19.06,1.69,20.9-18.42C245.52,107.38,246.27,88.09,226.18,87.26Z"/><polygon class="cls-2" points="236.07 96.12 239.84 95.05 242.14 97.28 244.37 102.35 243.75 107.89 239.84 109.04 236.07 102.97 236.07 96.12"/><path class="cls-2" d="M239.68,109.65l4-1.07s1.15,2.69.31,3.53c0,0-2.46,6.54-4.31,8a5.82,5.82,0,0,1-4.38.92v-4.38S240.14,112.11,239.68,109.65Z"/><path class="cls-2" d="M235.3,96v6.69l-7,3.46-7.3-4.69.38-7,6.77-2.69S236.37,94.82,235.3,96Z"/><path class="cls-2" d="M220.46,102l6.69,4.49.54,8.32L221,118.11s-7.77-4.15-6.92-4.54c0,0-.9-8.38-.06-8.3S220.46,102,220.46,102Z"/><path class="cls-2" d="M227.69,115.27s5.07,1.84,6.92,1.53v4.33l-6.08,3.36s-6.84-.84-6.84-1.54-.69-4.15-.69-4.15Z"/><path class="cls-2" d="M215.46,91.13v1.69s5.92.38,5.54.92,6.46-3.23,6.8-2.61.89-3,.89-3S219.31,87.28,215.46,91.13Z"/><path class="cls-2" d="M214.72,91.74v1.51s-2.61,1.36-4.92,7l-1.67,1.18A18.79,18.79,0,0,1,214.72,91.74Z"/><path class="cls-2" d="M207.49,103.3l2.41-2s2.95,4.64,3.51,4.2c0,0-.77,8.25-.2,8.2s-2.18,1.18-2.41,1.62S206.73,113.32,207.49,103.3Z"/><path class="cls-2" d="M217.08,123.13s4.2.93,4.35.46a22.51,22.51,0,0,0,6.72,1.52l-.1.25S220.9,125.82,217.08,123.13Z"/><path class="cls-2" d="M208.9,115.27l2.34,3.37a21.87,21.87,0,0,1-1-2.61C210.37,116,209.08,115.56,208.9,115.27Z"/><path class="cls-3" d="M101.8,166.88l237-55.69S341.59,86.8,346.65,85s73.64-26.23,73.64-26.23,24.85,16.56,17.49,63.05L363.22,137s-18-12.61-22.55-18.87L105.94,186.21S93.52,187.59,101.8,166.88Z"/><path class="cls-3" d="M116.87,171.49s2.54-.69,3,2.76-3,2.64-3,2.64-1.15.58-2.53-2.18C114.34,174.71,114,171.6,116.87,171.49Z"/><path class="cls-3" d="M167.27,157.33a4.28,4.28,0,0,1,5.18,3.92s.57,3.22-5.18,3.68c0,0-3.91-.07-4.26-3.83C163,161.1,163,157.45,167.27,157.33Z"/><path class="cls-3" d="M359.08,88.64l54.54-18.06s3.1-.35,1.95,3.1-55.46,19-55.46,19S356.89,92.21,359.08,88.64Z"/><path class="cls-3" d="M415.34,84.38s5.53,0,2.53,4.15L362.3,104.17s-4.26-.69-.81-3.91Z"/><path class="cls-3" d="M364.37,111.65l55-13.69s5.06.69,1.15,3.8L366,115.11S361.26,114.88,364.37,111.65Z"/><path class="cls-3" d="M367.59,122.48l55.58-11.63s5.87.57,1.84,3.45-.58-.34-.58-.34l-55.11,12S364.49,125.48,367.59,122.48Z"/><polygon class="cls-3" points="182.25 147.98 186.76 146.92 190.22 161.76 187.16 162.64 182.25 147.98"/><polygon class="cls-3" points="194.72 145.05 198.28 144.22 201.86 158.38 198.29 159.41 194.72 145.05"/><path class="cls-3" d="M266.11,144.21l69.65,16.89s21.94,11.77-.61,26.8H324.41l-101-30.64Z"/><polygon class="cls-3" points="221.93 136.05 185.26 145.56 156.57 136.81 160.41 119.48 221.93 136.05"/><path class="cls-3" d="M158.1,119.48l-4.91,16.57-100,5.52S1.77,135.28,1,92.32,65,61,65,61Z"/><path class="cls-3" d="M145.22,132.52l-91.9,5.21s-32.52-6.44-40.81-20.55c0,0,33.6,20.09,40.81,15.34l91.9-1.08Z"/><path class="cls-3" d="M145.22,128.84H58.69S24.94,130.37,5.3,102c0,0-2.91-6.44,4.3,0,0,0,2.91,16,70.88,22.09,0,0,21.47,2.61,63.2,3.38Z"/><path class="cls-3" d="M130.8,123.62s-71.65-3.53-73-8.28c0,0-45.1-5.07-51.55-25.16,0,0,31.76,11.66,65.2,18.25,0,0,45.26,12.91,58.15,14Z"/><path class="cls-3" d="M137.55,122.48S5.77,85.38,6.44,84.58c1.27-1.52,4.27-3.91,10.83-4.53A101.59,101.59,0,0,1,35.1,80a3.23,3.23,0,0,1,.54.11c4.56,1.38,66.17,20.18,101.91,40.12Z"/><path class="cls-3" d="M137.55,116.56s-88.83-43.64-97-40.19l-26.54-.2A13.3,13.3,0,0,1,26.17,69H44.88s48.33,13.66,92.67,45.88Z"/><path class="cls-3" d="M136.78,111.65s-68-45.47-79.32-43.87c0,0-14.69-2.92-28.38-2.3,0,0,6.91-6,28.38-2,0,0,32.07,8.9,79.32,45.87Z"/><text class="cls-4" transform="translate(117.12 72.06) scale(0.8 1)"><tspan class="cls-5">F</tspan><tspan x="31.35" y="0">OOD</tspan><tspan class="cls-6" x="144.99" y="0">B</tspan><tspan class="cls-7" x="179.19" y="0">ALL</tspan></text><polygon class="cls-3" points="148.2 90.76 143.33 80.61 197.13 94 192.76 115.31 138.35 99.77 148.2 90.76"/><polygon class="cls-3" points="299.99 99.13 308.57 106.42 253.97 116.07 249.3 94.82 305.32 86.89 299.99 99.13"/><path class="cls-8" d="M304,22.12,304.57,8l8-7.09.2-.72a2.07,2.07,0,0,1,1.45.06l-.69,34.44,24.11-1-21.4-11.39Z"/><path class="cls-8" d="M312.52,2.74l-7.19,5.57-.39,13.38H316.3l24.47,12.15s.73.73.07,1.29l-29.08,1.23Z"/><path class="cls-8" d="M314.23.76l9.85.62s1.36.63.93,3.45,5.36,24.77,12.65,28.91l-24.11,1Z"/><path class="cls-8" d="M305.33,8.31h4s.76.16.3,1.06c0,0,4.21,12.35,6.66,12.32H304.94Z"/><line class="cls-8" x1="306.08" y1="8.31" x2="306.04" y2="21.69"/><line class="cls-8" x1="307.01" y1="8.31" x2="307.28" y2="21.69"/><line class="cls-8" x1="308.03" y1="8.31" x2="308.65" y2="21.69"/><line class="cls-8" x1="309.34" y1="8.31" x2="309.84" y2="21.69"/><line class="cls-8" x1="310.9" y1="12.78" x2="311.12" y2="21.69"/><line class="cls-8" x1="305.31" y1="9.22" x2="309.64" y2="9.37"/><line class="cls-8" x1="305.28" y1="10.28" x2="309.95" y2="10.26"/><line class="cls-8" x1="305.24" y1="11.52" x2="310.41" y2="11.5"/><line class="cls-8" x1="305.2" y1="12.86" x2="310.9" y2="12.78"/><line class="cls-8" x1="305.14" y1="14.81" x2="311.73" y2="14.8"/><line class="cls-8" x1="305.17" y1="13.8" x2="311.31" y2="13.8"/><line class="cls-8" x1="305.11" y1="15.81" x2="312.17" y2="15.8"/><line class="cls-8" x1="305.09" y1="16.68" x2="312.2" y2="16.77"/><line class="cls-8" x1="305.06" y1="17.68" x2="312.18" y2="17.88"/><line class="cls-8" x1="305.02" y1="18.74" x2="312.16" y2="18.87"/><line class="cls-8" x1="305" y1="19.7" x2="312.13" y2="19.86"/><line class="cls-8" x1="304.96" y1="20.74" x2="312.11" y2="20.74"/><line class="cls-8" x1="315.58" y1="0.84" x2="315.14" y2="34.67"/><line class="cls-8" x1="316.86" y1="0.92" x2="316.99" y2="34.73"/><line class="cls-8" x1="318.31" y1="1.02" x2="318.82" y2="34.52"/><line class="cls-8" x1="319.64" y1="1.1" x2="320.83" y2="34.43"/><line class="cls-8" x1="321.31" y1="1.21" x2="323.22" y2="34.34"/><line class="cls-8" x1="323.03" y1="1.32" x2="325.6" y2="34.24"/><line class="cls-8" x1="325.25" y1="7.43" x2="327.9" y2="34.14"/><line class="cls-8" x1="329.18" y1="20.74" x2="330.64" y2="34.03"/><line class="cls-8" x1="332.13" y1="27.14" x2="332.93" y2="33.94"/><line class="cls-8" x1="334.63" y1="30.97" x2="335.1" y2="33.85"/><line class="cls-8" x1="314.2" y1="2.46" x2="325.02" y2="2.96"/><line class="cls-8" x1="314.16" y1="4.5" x2="325.01" y2="4.83"/><line class="cls-8" x1="314.3" y1="6.48" x2="325.1" y2="6.54"/><line class="cls-8" x1="314.07" y1="8.65" x2="325.38" y2="8.79"/><line class="cls-8" x1="314.03" y1="10.9" x2="326.04" y2="11.03"/><line class="cls-8" x1="313.99" y1="12.88" x2="326.57" y2="12.99"/><line class="cls-8" x1="313.95" y1="15" x2="327.23" y2="15.19"/><line class="cls-8" x1="313.9" y1="17.04" x2="327.89" y2="17.23"/><line class="cls-8" x1="313.88" y1="19.09" x2="328.57" y2="19.14"/><line class="cls-8" x1="313.83" y1="20.64" x2="329.18" y2="20.74"/><line class="cls-8" x1="313.8" y1="22.29" x2="329.91" y2="22.53"/><line class="cls-8" x1="313.76" y1="24.02" x2="330.68" y2="24.27"/><line class="cls-8" x1="313.72" y1="26.22" x2="331.69" y2="26.31"/><line class="cls-8" x1="313.66" y1="29.14" x2="333.23" y2="29"/><line class="cls-8" x1="313.62" y1="31.19" x2="334.4" y2="30.68"/><line class="cls-8" x1="313.58" y1="33.18" x2="335.64" y2="32.13"/><line class="cls-8" x1="309.59" y1="8.31" x2="324.31" y2="1.55"/><line class="cls-8" x1="308.87" y1="8.31" x2="322.62" y2="1.29"/><line class="cls-8" x1="308.03" y1="8.31" x2="320.04" y2="1.13"/><line class="cls-8" x1="307.01" y1="8.31" x2="317.87" y2="0.99"/><line class="cls-8" x1="306.08" y1="8.31" x2="315.58" y2="0.84"/><line class="cls-8" x1="309.79" y1="8.89" x2="325.02" y2="2.96"/><line class="cls-8" x1="309.95" y1="10.26" x2="325.1" y2="6.54"/><line class="cls-8" x1="310.41" y1="11.5" x2="325.38" y2="8.79"/><line class="cls-8" x1="310.9" y1="12.78" x2="326.04" y2="11.03"/><line class="cls-8" x1="311.31" y1="13.8" x2="326.57" y2="12.99"/><line class="cls-8" x1="311.73" y1="14.8" x2="327.23" y2="15.19"/><line class="cls-8" x1="312.17" y1="15.8" x2="327.89" y2="17.23"/><line class="cls-8" x1="313.13" y1="17.83" x2="329.18" y2="20.74"/><line class="cls-8" x1="313.88" y1="19.09" x2="329.91" y2="22.53"/><line class="cls-8" x1="314.4" y1="20.05" x2="331.79" y2="26.51"/><line class="cls-8" x1="315.32" y1="21.17" x2="333.66" y2="29.65"/><line class="cls-8" x1="306.17" y1="7.66" x2="310.18" y2="7.64"/><line class="cls-8" x1="307.14" y1="6.9" x2="312.18" y2="7.12"/><line class="cls-8" x1="308.24" y1="6.05" x2="313.42" y2="6.55"/><line class="cls-8" x1="309.27" y1="5.26" x2="314.5" y2="6.05"/><line class="cls-8" x1="310.83" y1="4.05" x2="315.95" y2="5.39"/><line class="cls-8" x1="312.95" y1="2.91" x2="317.42" y2="4.72"/><line class="cls-8" x1="314.27" y1="1.87" x2="318.94" y2="4.02"/><line class="cls-8" x1="315.58" y1="0.94" x2="320.36" y2="3.37"/><line class="cls-8" x1="310.18" y1="7.64" x2="316.94" y2="21.93"/><line class="cls-8" x1="312.18" y1="7.12" x2="318.64" y2="22.71"/><line class="cls-8" x1="314.5" y1="6.05" x2="320.59" y2="23.61"/><line class="cls-8" x1="317.27" y1="4.72" x2="322.66" y2="24.72"/><line class="cls-8" x1="320.36" y1="3.37" x2="327.16" y2="26.74"/><path class="cls-9" d="M119.51,25.6l.73-1.23,1.43-.82.36-.67a1.71,1.71,0,0,1,1.37,0,9.23,9.23,0,0,0,4.08-1h1.46a1.42,1.42,0,0,0,.75.29l.41-.15a14.25,14.25,0,0,1,2.31-2.84l-.28-.41,1.8-3a3.45,3.45,0,0,1-.57-1.14,2,2,0,0,1,.26-1s-.13,0-.35-.49l.92-1.31V10.36a7.44,7.44,0,0,1,1.36-2.49V7.1h.78l.5-.77a2.1,2.1,0,0,1-.36-1.77,2.41,2.41,0,0,1,1.12-1.63s.77-.69,2.35.57a2.1,2.1,0,0,1,.21,2.65L140,7l-.42.24a1.84,1.84,0,0,0-.21.66s.22.14-.72.21v.16h1.68s0-.22.51-.22l.36-.06.85-.39s0-.1.2,0a9,9,0,0,1,.9.7l.21,0s.21.16,0,.56l-.33.06,0,.13h-.59s-.09.28-.86.07H141l-1.56,1a9.67,9.67,0,0,1,.26,5.45l-.08,1.08a1.33,1.33,0,0,0-.31.77,1.16,1.16,0,0,0,.25.61v1.18l3.58,4.38a.38.38,0,0,1,.26.35c0,.27-.23,1.85-.23,1.85l.23.19.45,4h.44a.85.85,0,0,0,.77.67l2.17.25s.27.37-.14,1a8.62,8.62,0,0,1-2.38.8l-1.81.15a5.68,5.68,0,0,1-.84-.69l-.06-.51s.26-.34.18-.49-.23-.33-.23-.33l-.13-1.9-1.08-3.12.22-.1v-.72l-4.13-3.31s-.9-.26-1.34.17l-1,.16-.44-.16-3,2.3-2.11.05s.18,0-.14.25l-5.18.56,0,.41-.68.14-1.36.08S119.64,26.84,119.51,25.6Z"/><path class="cls-9" d="M152.89,26.5s-2.92-.26-3.07,3.12a3,3,0,1,0,3.07-3.12Z"/><polygon class="cls-10" points="154.43 27.87 155.01 27.7 155.37 28.05 155.71 28.84 155.62 29.69 155.01 29.87 154.43 28.93 154.43 27.87"/><path class="cls-10" d="M155,30l.62-.17s.17.42,0,.55a4.61,4.61,0,0,1-.66,1.24.88.88,0,0,1-.68.14v-.68S155.06,30.35,155,30Z"/><path class="cls-10" d="M154.31,27.85v1l-1.09.54-1.13-.73.06-1.08,1-.42S154.47,27.67,154.31,27.85Z"/><path class="cls-10" d="M152,28.79l1,.69.09,1.29-1,.51s-1.2-.64-1.07-.7-.14-1.3,0-1.29A6.19,6.19,0,0,0,152,28.79Z"/><path class="cls-10" d="M153.13,30.84a3.79,3.79,0,0,0,1.07.24v.67l-.94.52s-1.06-.13-1.06-.24-.11-.64-.11-.64Z"/><path class="cls-10" d="M151.23,27.1v.26s.92.06.86.14,1-.5,1-.4.14-.47.14-.47S151.83,26.5,151.23,27.1Z"/><path class="cls-10" d="M151.12,27.19v.24a2.09,2.09,0,0,0-.77,1.09l-.26.18A2.93,2.93,0,0,1,151.12,27.19Z"/><path class="cls-10" d="M150,29l.37-.31s.46.71.54.65a6,6,0,0,0,0,1.27c.09,0-.34.18-.37.25S149.88,30.54,150,29Z"/><path class="cls-10" d="M151.48,32.06s.65.14.68.07a3.28,3.28,0,0,0,1,.23l0,0A3.17,3.17,0,0,1,151.48,32.06Z"/><path class="cls-10" d="M150.21,30.84l.37.52a3.33,3.33,0,0,1-.16-.4S150.24,30.88,150.21,30.84Z"/></g></g></g></svg>